<svg width="107" height="56" viewBox="0 0 107 56" fill="none" xmlns="http://www.w3.org/2000/svg">
<path fill-rule="evenodd" clip-rule="evenodd" d="M80.5041 35.8547C77.834 35.41 74.826 34.1021 72.1417 32.6654C69.151 31.0638 66.5613 29.3025 65.2853 28.3966C64.744 28.0131 64.4405 27.7833 64.4405 27.7833C57.4999 22.6705 41.4452 13.6639 27.4292 11.6711C19.9186 15.6536 12.0022 30.1191 11.9569 35.0293C11.9166 39.3933 19.2442 34.5498 19.2442 34.5498C17.6174 29.5699 19.9387 23.4685 26.1011 20.5817C38.6551 14.7014 50.1971 23.619 60.0602 30.6962C60.9779 31.355 61.8814 31.9976 62.7692 32.6109L67.0389 35.6477L69.8967 37.6805C71.4031 38.6597 73.8904 39.903 76.7709 40.9782C88.8731 40.3448 88.8852 32.956 87.3402 32.6463C87.0276 34.3888 84.4167 36.5063 80.5041 35.8543" fill="#2960E0"/>
<path fill-rule="evenodd" clip-rule="evenodd" d="M97.6292 38.539C100.938 30.5321 85.2065 30.2319 83.2254 30.16C83.9241 30.2036 84.6173 30.3116 85.2963 30.4823C86.6653 30.8298 87.2345 31.6558 87.3402 32.6468C87.4425 33.6177 87.1025 34.745 86.6325 35.7276C85.6192 37.8485 83.0842 40.4703 76.771 40.9787C81.9859 42.9252 88.4892 44.3212 92.7911 42.6081C95.2571 41.6262 96.8481 40.181 97.6292 38.539Z" fill="#1F4BD4"/>
<path fill-rule="evenodd" clip-rule="evenodd" d="M19.3825 39.5396C16.6666 33.5357 18.1287 20.3151 23.0766 15.0241C24.3318 13.6735 25.8027 12.5411 27.4293 11.673C11.1497 9.35788 3.18345 18.2181 2.00461 29.0534C7.81948 50.2886 37.1929 40.8977 37.1929 40.8977C30.7314 42.5485 25.1207 42.2034 21.1442 37.5565C20.3718 36.6502 19.8703 40.6258 19.3825 39.5396Z" fill="#1F4BD4"/>
<path fill-rule="evenodd" clip-rule="evenodd" d="M24.4743 35.1247C27.136 34.7867 30.1656 33.6068 32.8795 32.2868C35.9032 30.8152 38.5359 29.17 39.8346 28.3218C40.3854 27.9627 40.6948 27.7467 40.6948 27.7467C47.7657 22.949 64.0134 14.6444 77.9725 13.2086C85.2587 17.4415 92.5445 32.0732 92.4009 36.9385C92.2733 41.2624 85.2013 36.1837 85.2013 36.1837C87.0038 31.3137 84.9388 25.1813 78.9459 22.0853C66.7371 15.7791 54.9626 24.1688 44.9217 30.8001C43.9874 31.4174 43.0678 32.0192 42.165 32.5925L37.8193 35.4365L34.9106 37.3403C33.381 38.2523 30.8697 39.3884 27.9753 40.3427C16.0125 39.2508 16.6246 33.1425 18.1667 32.8951C18.4095 34.633 20.5738 35.6204 24.4743 35.1247Z" fill="#2960E0"/>
<path fill-rule="evenodd" clip-rule="evenodd" d="M7.40907 37.1261C4.43883 29.0684 12.9659 27.619 14.9309 27.6238C14.2372 27.6402 17.8197 29.4534 17.1407 29.5965C15.7713 29.8882 17.9691 30.7074 17.8264 31.685C17.6878 32.6427 17.9812 33.7723 18.409 34.7636C19.3313 36.9032 21.7416 39.5974 27.9752 40.3433C22.7352 42.0711 16.2402 43.2041 12.045 41.3422C9.64015 40.275 8.11978 38.7825 7.40907 37.1261Z" fill="#1F4BD4"/>
<path fill-rule="evenodd" clip-rule="evenodd" d="M85.2011 36.1866C88.1216 30.344 86.8527 22.1273 82.155 16.6967C80.9636 15.3109 79.5501 14.1327 77.9723 13.2105C94.1859 11.5423 101.736 20.624 102.488 31.4014C95.9132 52.2114 67.1798 41.7823 67.1798 41.7823C73.5165 43.6655 79.087 43.5389 83.2041 39.0889C84.0038 38.2209 84.6762 37.2437 85.2011 36.1866Z" fill="#1F4BD4"/>
</svg>
